<svg width="263" height="208" viewBox="0 0 263 208" fill="none" xmlns="http://www.w3.org/2000/svg">
<rect width="263" height="208" fill="#E5E5E5"/>
<rect width="1440" height="6989" transform="translate(-122 -1172)" fill="white"/>
<g filter="url(#filter0_d_202_1576)">
<rect x="-16" y="-16" width="295" height="427" rx="8" fill="white"/>
<rect width="262.891" height="208" rx="4" fill="#CCCCCC"/>
<rect x="66" y="187" width="131" height="32" rx="8" fill="#4586D6"/>
<path d="M94.74 207.12C93.58 207.12 92.676 206.796 92.028 206.148C91.38 205.492 91.056 204.556 91.056 203.34V198.6H92.616V203.28C92.616 204.928 93.328 205.752 94.752 205.752C96.168 205.752 96.876 204.928 96.876 203.28V198.6H98.412V203.34C98.412 204.556 98.088 205.492 97.44 206.148C96.8 206.796 95.9 207.12 94.74 207.12ZM100.597 198.6H102.157V207H100.597V198.6ZM106.901 196.896H108.245L104.285 208.2H102.941L106.901 196.896ZM112.494 207.12C111.334 207.12 110.43 206.796 109.782 206.148C109.134 205.492 108.81 204.556 108.81 203.34V198.6H110.37V203.28C110.37 204.928 111.082 205.752 112.506 205.752C113.922 205.752 114.63 204.928 114.63 203.28V198.6H116.166V203.34C116.166 204.556 115.842 205.492 115.194 206.148C114.554 206.796 113.654 207.12 112.494 207.12ZM123.525 207L121.245 203.808L118.989 207H117.213L120.333 202.716L117.381 198.6H119.145L121.293 201.588L123.417 198.6H125.109L122.169 202.656L125.325 207H123.525ZM129.87 198.6H133.542C134.438 198.6 135.234 198.776 135.93 199.128C136.626 199.472 137.166 199.964 137.55 200.604C137.934 201.236 138.126 201.968 138.126 202.8C138.126 203.632 137.934 204.368 137.55 205.008C137.166 205.64 136.626 206.132 135.93 206.484C135.234 206.828 134.438 207 133.542 207H129.87V198.6ZM133.47 205.68C134.086 205.68 134.626 205.564 135.09 205.332C135.562 205.092 135.922 204.756 136.17 204.324C136.426 203.884 136.554 203.376 136.554 202.8C136.554 202.224 136.426 201.72 136.17 201.288C135.922 200.848 135.562 200.512 135.09 200.28C134.626 200.04 134.086 199.92 133.47 199.92H131.43V205.68H133.47ZM145.664 203.832C145.664 203.936 145.656 204.084 145.64 204.276H140.612C140.7 204.748 140.928 205.124 141.296 205.404C141.672 205.676 142.136 205.812 142.688 205.812C143.392 205.812 143.972 205.58 144.428 205.116L145.232 206.04C144.944 206.384 144.58 206.644 144.14 206.82C143.7 206.996 143.204 207.084 142.652 207.084C141.948 207.084 141.328 206.944 140.792 206.664C140.256 206.384 139.84 205.996 139.544 205.5C139.256 204.996 139.112 204.428 139.112 203.796C139.112 203.172 139.252 202.612 139.532 202.116C139.82 201.612 140.216 201.22 140.72 200.94C141.224 200.66 141.792 200.52 142.424 200.52C143.048 200.52 143.604 200.66 144.092 200.94C144.588 201.212 144.972 201.6 145.244 202.104C145.524 202.6 145.664 203.176 145.664 203.832ZM142.424 201.72C141.944 201.72 141.536 201.864 141.2 202.152C140.872 202.432 140.672 202.808 140.6 203.28H144.236C144.172 202.816 143.976 202.44 143.648 202.152C143.32 201.864 142.912 201.72 142.424 201.72ZM149.085 207.084C148.565 207.084 148.057 207.016 147.561 206.88C147.065 206.744 146.669 206.572 146.373 206.364L146.949 205.224C147.237 205.416 147.581 205.572 147.981 205.692C148.389 205.804 148.789 205.86 149.181 205.86C150.077 205.86 150.525 205.624 150.525 205.152C150.525 204.928 150.409 204.772 150.177 204.684C149.953 204.596 149.589 204.512 149.085 204.432C148.557 204.352 148.125 204.26 147.789 204.156C147.461 204.052 147.173 203.872 146.925 203.616C146.685 203.352 146.565 202.988 146.565 202.524C146.565 201.916 146.817 201.432 147.321 201.072C147.833 200.704 148.521 200.52 149.385 200.52C149.825 200.52 150.265 200.572 150.705 200.676C151.145 200.772 151.505 200.904 151.785 201.072L151.209 202.212C150.665 201.892 150.053 201.732 149.373 201.732C148.933 201.732 148.597 201.8 148.365 201.936C148.141 202.064 148.029 202.236 148.029 202.452C148.029 202.692 148.149 202.864 148.389 202.968C148.637 203.064 149.017 203.156 149.529 203.244C150.041 203.324 150.461 203.416 150.789 203.52C151.117 203.624 151.397 203.8 151.629 204.048C151.869 204.296 151.989 204.648 151.989 205.104C151.989 205.704 151.729 206.184 151.209 206.544C150.689 206.904 149.981 207.084 149.085 207.084ZM153.281 200.592H154.781V207H153.281V200.592ZM154.037 199.536C153.765 199.536 153.537 199.452 153.353 199.284C153.169 199.108 153.077 198.892 153.077 198.636C153.077 198.38 153.169 198.168 153.353 198C153.537 197.824 153.765 197.736 154.037 197.736C154.309 197.736 154.537 197.82 154.721 197.988C154.905 198.148 154.997 198.352 154.997 198.6C154.997 198.864 154.905 199.088 154.721 199.272C154.545 199.448 154.317 199.536 154.037 199.536ZM163.11 200.592V206.028C163.11 208.284 161.958 209.412 159.654 209.412C159.038 209.412 158.454 209.332 157.902 209.172C157.35 209.02 156.894 208.796 156.534 208.5L157.206 207.372C157.486 207.604 157.838 207.788 158.262 207.924C158.694 208.068 159.13 208.14 159.57 208.14C160.274 208.14 160.79 207.98 161.118 207.66C161.446 207.34 161.61 206.852 161.61 206.196V205.86C161.354 206.14 161.042 206.352 160.674 206.496C160.306 206.64 159.902 206.712 159.462 206.712C158.854 206.712 158.302 206.584 157.806 206.328C157.318 206.064 156.93 205.696 156.642 205.224C156.362 204.752 156.222 204.212 156.222 203.604C156.222 202.996 156.362 202.46 156.642 201.996C156.93 201.524 157.318 201.16 157.806 200.904C158.302 200.648 158.854 200.52 159.462 200.52C159.926 200.52 160.346 200.596 160.722 200.748C161.106 200.9 161.426 201.132 161.682 201.444V200.592H163.11ZM159.69 205.44C160.258 205.44 160.722 205.272 161.082 204.936C161.45 204.592 161.634 204.148 161.634 203.604C161.634 203.068 161.45 202.632 161.082 202.296C160.722 201.96 160.258 201.792 159.69 201.792C159.114 201.792 158.642 201.96 158.274 202.296C157.914 202.632 157.734 203.068 157.734 203.604C157.734 204.148 157.914 204.592 158.274 204.936C158.642 205.272 159.114 205.44 159.69 205.44ZM168.718 200.52C169.526 200.52 170.174 200.756 170.662 201.228C171.15 201.7 171.394 202.4 171.394 203.328V207H169.894V203.52C169.894 202.96 169.762 202.54 169.498 202.26C169.234 201.972 168.858 201.828 168.37 201.828C167.818 201.828 167.382 201.996 167.062 202.332C166.742 202.66 166.582 203.136 166.582 203.76V207H165.082V200.592H166.51V201.42C166.758 201.124 167.07 200.9 167.446 200.748C167.822 200.596 168.246 200.52 168.718 200.52Z" fill="white"/>
</g>
<defs>
<filter id="filter0_d_202_1576" x="-33" y="-33" width="409" height="541" filterUnits="userSpaceOnUse" color-interpolation-filters="sRGB">
<feFlood flood-opacity="0" result="BackgroundImageFix"/>
<feColorMatrix in="SourceAlpha" type="matrix" values="0 0 0 0 0 0 0 0 0 0 0 0 0 0 0 0 0 0 127 0" result="hardAlpha"/>
<feOffset dx="40" dy="40"/>
<feGaussianBlur stdDeviation="28.5"/>
<feColorMatrix type="matrix" values="0 0 0 0 0 0 0 0 0 0 0 0 0 0 0 0 0 0 0.1 0"/>
<feBlend mode="normal" in2="BackgroundImageFix" result="effect1_dropShadow_202_1576"/>
<feBlend mode="normal" in="SourceGraphic" in2="effect1_dropShadow_202_1576" result="shape"/>
</filter>
</defs>
</svg>
